<?xml version="1.0" encoding="UTF-8"?>
<svg width="34px" height="34px" viewBox="0 0 34 34" version="1.1" xmlns="http://www.w3.org/2000/svg" xmlns:xlink="http://www.w3.org/1999/xlink">
    <!-- Generator: Sketch 46.2 (44496) - http://www.bohemiancoding.com/sketch -->
    <title>dribble</title>
    <desc>Created with Sketch.</desc>
    <defs></defs>
    <g id="Page-1" stroke="none" stroke-width="1" fill="none" fill-rule="evenodd">
        <g id="dribble" fill-rule="nonzero" fill="#FFFFFF">
            <g id="ball">
                <path d="M16.9820494,33.9881508 C7.62081925,33.9881508 0.00495188557,26.3722835 0.00495188557,17.0110533 C0.00495188557,7.64982315 7.62081925,0.0339557867 16.9820494,0.0339557867 C26.3432796,0.0339557867 33.9591469,7.64982315 33.9591469,17.0110533 C33.9591469,26.3722835 26.3432354,33.9881508 16.9820494,33.9881508 Z M31.2997191,19.3349909 C30.8036021,19.1783875 26.811277,17.9876801 22.2669493,18.7150767 C24.1636983,23.9270689 24.9354408,28.1722939 25.0840416,29.0541717 C28.3374746,26.8544291 30.6533654,23.3698492 31.2997191,19.3349909 L31.2997191,19.3349909 Z M22.6464317,30.3817633 C22.4307594,29.1095267 21.5888062,24.6755553 19.5529623,19.3850845 C19.5210403,19.395961 19.4892068,19.4063069 19.4572848,19.4174044 C11.2781847,22.2674798 8.34207022,27.9395995 8.08121196,28.4730767 C12.2292758,31.7074675 17.805044,32.4381392 22.6464317,30.3817633 L22.6464317,30.3817633 Z M6.20886866,26.7290403 C6.537329,26.166736 10.5170975,19.5772354 17.9958596,17.1598309 C18.1848565,17.0987282 18.3753273,17.041251 18.5672718,16.9873992 C18.203264,16.1636619 17.8068036,15.3389519 17.3916411,14.5265332 C10.1499506,16.6937789 3.12282705,16.6032302 2.48836671,16.5901873 C2.48394538,16.7374174 2.48098309,16.8850013 2.48098309,17.0332926 C2.47818742,20.6156849 3.80681745,24.0712796 6.20886866,26.7290403 L6.20886866,26.7290403 Z M2.78729259,14.0631782 C3.43585696,14.0717113 9.41043953,14.0976645 16.193329,12.2963719 C13.7906034,8.02537061 11.199264,4.43419246 10.8169961,3.90991157 C6.76020806,5.82346164 3.72757607,9.563329 2.78729259,14.0631782 Z M13.5838622,2.93523017 C13.9846996,3.47189077 16.6183953,7.05847074 18.9946372,11.4241769 C24.1510091,9.49148244 26.334039,6.55749025 26.5948973,6.1860104 C23.051023,3.03882064 18.1915228,1.82468455 13.5838622,2.93523017 Z M28.2067802,7.86301951 C27.9010897,8.27672302 25.4712614,11.3916359 20.1095189,13.5806346 C20.4469545,14.2713784 20.7704187,14.973883 21.0715995,15.6810299 C21.1783303,15.9315717 21.2824525,16.181023 21.3839662,16.4293836 C26.2090481,15.8226892 31.0032692,16.7950273 31.4813472,16.896143 C31.4535953,13.5994729 30.2979959,10.4116705 28.2067802,7.86301951 Z"></path>
            </g>
        </g>
    </g>
</svg>