<?xml version="1.0" encoding="UTF-8"?>
<svg width="34px" height="34px" viewBox="0 0 34 34" version="1.1" xmlns="http://www.w3.org/2000/svg" xmlns:xlink="http://www.w3.org/1999/xlink">
    <!-- Generator: Sketch 46.2 (44496) - http://www.bohemiancoding.com/sketch -->
    <title>instagram</title>
    <desc>Created with Sketch.</desc>
    <defs></defs>
    <g id="Page-1" stroke="none" stroke-width="1" fill="none" fill-rule="evenodd">
        <g id="instagram" fill-rule="nonzero" fill="#FFFFFF">
            <g id="Shape">
                <path d="M9.60869565,0 C4.31063161,0 0,4.31063161 0,9.60869565 L0,24.3913043 C0,29.6893684 4.31063161,34 9.60869565,34 L24.3913043,34 C29.6893684,34 34,29.6893684 34,24.3913043 L34,9.60869565 C34,4.31063161 29.6893684,0 24.3913043,0 L9.60869565,0 Z M9.60869565,1.47826087 L24.3913043,1.47826087 C28.8896063,1.47826087 32.5217391,5.11039439 32.5217391,9.60869565 L32.5217391,24.3913043 C32.5217391,28.8896063 28.8896063,32.5217391 24.3913043,32.5217391 L9.60869565,32.5217391 C5.11039439,32.5217391 1.47826087,28.8896063 1.47826087,24.3913043 L1.47826087,9.60869565 C1.47826087,5.11039439 5.11039439,1.47826087 9.60869565,1.47826087 Z M26.6086957,5.91304348 C25.7916099,5.91304348 25.1304348,6.57421857 25.1304348,7.39130435 C25.1304348,8.20839013 25.7916099,8.86956522 26.6086957,8.86956522 C27.4257814,8.86956522 28.0869565,8.20839013 28.0869565,7.39130435 C28.0869565,6.57421857 27.4257814,5.91304348 26.6086957,5.91304348 Z M17,8.13043478 C12.1090357,8.13043478 8.13043478,12.1090357 8.13043478,17 C8.13043478,21.890965 12.1090357,25.8695652 17,25.8695652 C21.890965,25.8695652 25.8695652,21.890965 25.8695652,17 C25.8695652,12.1090357 21.890965,8.13043478 17,8.13043478 Z M17,9.60869565 C21.0912023,9.60869565 24.3913043,12.9087977 24.3913043,17 C24.3913043,21.0912023 21.0912023,24.3913043 17,24.3913043 C12.9087977,24.3913043 9.60869565,21.0912023 9.60869565,17 C9.60869565,12.9087977 12.9087977,9.60869565 17,9.60869565 Z"></path>
            </g>
        </g>
    </g>
</svg>