<?xml version="1.0" encoding="UTF-8"?>
<svg width="34px" height="34px" viewBox="0 0 34 34" version="1.1" xmlns="http://www.w3.org/2000/svg" xmlns:xlink="http://www.w3.org/1999/xlink">
    <!-- Generator: Sketch 46.2 (44496) - http://www.bohemiancoding.com/sketch -->
    <title>linkedin</title>
    <desc>Created with Sketch.</desc>
    <defs></defs>
    <g id="Page-1" stroke="none" stroke-width="1" fill="none" fill-rule="evenodd">
        <g id="linkedin" fill-rule="nonzero" fill="#FFFFFF">
            <g id="Shape">
                <path d="M27.625,0 L6.375,0 C2.85546908,0 0,2.85546908 0,6.375 L0,27.625 C0,31.1445309 2.85546908,34 6.375,34 L27.625,34 C31.1445309,34 34,31.1445309 34,27.625 L34,6.375 C34,2.85546908 31.1445309,0 27.625,0 Z M10.5126208,28.8611785 L5.23076923,28.8611785 L5.20012085,13.0462747 L10.4819712,13.0462747 L10.5126208,28.8611785 Z M7.73888254,10.9774636 L7.70823285,10.9774636 C5.981671,10.9774636 4.86808862,9.78725962 4.86808862,8.30589008 C4.86808862,6.78876169 6.01742854,5.63942308 7.77464008,5.63942308 C9.53185162,5.63942308 10.6096752,6.78876169 10.6454327,8.30589008 C10.6454327,9.78725962 9.52674246,10.9774636 7.73888254,10.9774636 Z M28.825421,28.8611785 L23.4975962,28.8611785 L23.4975962,20.2692308 C23.4975962,18.190204 22.9459135,16.7752404 21.0865385,16.7752404 C19.666467,16.7752404 18.9002404,17.7304691 18.5324519,18.6550481 C18.3945309,18.987079 18.3587747,19.4417074 18.3587747,19.9065502 L18.3587747,28.8611785 L13.0054093,28.8611785 L12.9747596,13.0462747 L18.328125,13.0462747 L18.3587747,15.278546 C19.0432692,14.2211538 20.1823922,12.7244595 22.9101559,12.7244595 C26.2917672,12.7244595 28.8203132,14.9311902 28.8203132,19.6766827 L28.8203132,28.8611785 L28.825421,28.8611785 Z"></path>
            </g>
        </g>
    </g>
</svg>