<?xml version="1.0" encoding="UTF-8"?>
<svg width="34px" height="34px" viewBox="0 0 34 34" version="1.1" xmlns="http://www.w3.org/2000/svg" xmlns:xlink="http://www.w3.org/1999/xlink">
    <!-- Generator: Sketch 46.2 (44496) - http://www.bohemiancoding.com/sketch -->
    <title>twitter</title>
    <desc>Created with Sketch.</desc>
    <defs></defs>
    <g id="Page-1" stroke="none" stroke-width="1" fill="none" fill-rule="evenodd">
        <g id="twitter" fill-rule="nonzero" fill="#FFFFFF">
            <g transform="translate(0.000000, 3.000000)" id="Shape">
                <path d="M33.8109979,3.36628638 C32.5799285,3.91286123 31.2569114,4.28064969 29.8674883,4.44921908 C31.2824519,3.59615385 32.3756016,2.252704 32.8864189,0.648738308 C31.5582939,1.43539631 30.0871401,2.00751169 28.5240385,2.31400208 C27.2725364,0.980769231 25.4897843,0.148136692 23.512921,0.148136692 C19.7226559,0.148136692 16.6475364,3.22325754 16.6475364,7.01352131 C16.6475364,7.54988046 16.7088345,8.07602131 16.8263228,8.57662292 C11.1204925,8.29056523 6.06340177,5.55258446 2.67668269,1.39964008 C2.08413462,2.41616554 1.74699585,3.59615385 1.74699585,4.85787292 C1.74699585,7.23828092 2.95763254,9.33774038 4.80168269,10.5688098 C3.67277677,10.5330535 2.61538462,10.2265632 1.69080562,9.71063669 C1.69080562,9.74128638 1.69080562,9.76682692 1.69080562,9.79747662 C1.69080562,13.1228963 4.05589008,15.8966346 7.19741554,16.5300481 C6.62019231,16.6884018 6.01742854,16.7701325 5.38912292,16.7701325 C4.94471154,16.7701325 4.515625,16.7292672 4.09675546,16.6475364 C4.97025208,19.3701923 7.50390592,21.3623805 10.5075117,21.4134615 C8.16286123,23.2575117 5.20012085,24.3506614 1.98197115,24.3506614 C1.42518062,24.3506614 0.883713615,24.3200117 0.347355769,24.2587136 C3.38161123,26.2049285 6.99308862,27.3389423 10.8701923,27.3389423 C23.4975962,27.3389423 30.4038462,16.8774038 30.4038462,7.81039631 C30.4038462,7.50901508 30.3987383,7.21274038 30.3834135,6.916467 C31.7268633,5.95613046 32.8915268,4.74549246 33.8109979,3.36628638"></path>
            </g>
        </g>
    </g>
</svg>